This must be the ultimate boy love scene on the Internet. One of those that you will keep watching over and over again. Two really cute boys sucking and fucking one another.



Studio : AsianBoysXXX



Format                                   : MPEG-4
Format profile                           : Base Media / Version 2
Codec ID                                 : mp42
File size                                : 450 MiB
Duration                                 : 21mn 48s
Overall bit rate mode                    : Variable
Overall bit rate                         : 2 885 Kbps
Encoded date                             : UTC 2013-06-16 08:06:17
Tagged date                              : UTC 2013-06-16 08:11:07
Writing application                      : HandBrake 0.9.9 2013052900

Video
ID                                       : 1
Format                                   : AVC
Format/Info                              : Advanced Video Codec
Format profile                           : Baseline@L4.0
Format settings, CABAC                   : No
Format settings, ReFrames                : 1 frame
Codec ID                                 : avc1
Codec ID/Info                            : Advanced Video Coding
Duration                                 : 21mn 48s
Bit rate mode                            : Variable
Bit rate                                 : 2 722 Kbps
Width                                    : 1 280 pixels
Height                                   : 720 pixels
Display aspect ratio                     : 16:9
Frame rate mode                          : Variable
Frame rate                               : 23.976 fps
Minimum frame rate                       : 23.974 fps
Maximum frame rate                       : 23.981 fps
Color space                              : YUV
Chroma subsampling                       : 4:2:0
Bit depth                                : 8 bits
Scan type                                : Progressive
Bits/(Pixel*Frame)                       : 0.123
Stream size                              : 425 MiB (94%)
Writing library                          : x264 core 130 r2273 b3065e6
Encoding settings                        : cabac=0 / ref=1 / deblock=0:-1:-1 / 00 /
Encoded date                             : UTC 2013-06-16 08:06:17
Tagged date                              : UTC 2013-06-16 08:11:07
Color primaries                          : BT.709
Transfer characteristics                 : BT.709
Matrix coefficients                      : BT.709

Audio
ID                                       : 2
Format                                   : AAC
Format/Info                              : Advanced Audio Codec
Format profile                           : LC
Codec ID                                 : 40
Duration                                 : 21mn 48s
Bit rate mode                            : Variable
Bit rate                                 : 160 Kbps
Maximum bit rate                         : 286 Kbps
Channel(s)                               : 2 channels
Channel positions                        : Front: L R
Sampling rate                            : 48.0 KHz
Compression mode                         : Lossy
Stream size                              : 24.9 MiB (6%)
Language                                 : English
Encoded date                             : UTC 2013-06-16 08:06:17
Tagged date                              : UTC 2013-06-16 08:11:07

